<svg xmlns="http://www.w3.org/2000/svg" viewBox="0 0 64 64" role="img" aria-labelledby="title">
  <title>European Athletics Coaching Summit favicon</title>
  <defs>
    <linearGradient id="bg" x1="10%" x2="90%" y1="10%" y2="90%">
      <stop offset="0%" stop-color="#f8fbff" />
      <stop offset="100%" stop-color="#e7f0fb" />
    </linearGradient>
    <linearGradient id="blue" x1="0%" x2="100%" y1="50%" y2="50%">
      <stop offset="0%" stop-color="#1f6fcb" />
      <stop offset="100%" stop-color="#0f3f86" />
    </linearGradient>
  </defs>

  <rect width="64" height="64" rx="16" fill="url(#bg)" />

  <path
    d="M17 13.5c5.4 0 10.4 1.9 14 5.3v11.9c0 10.8-6 17.6-14 21.8-8-4.2-14-11-14-21.8V18.8c3.6-3.4 8.6-5.3 14-5.3Z"
    fill="#d82c3a"
  />

  <path
    d="M14.2 23.4h5.7l2.7-5.2 2.7 5.2h5.5l-4.4 3.8 1.8 5.5-5.6-3.2-4.9 4.5 1.1-6.1-4.6-4.5Z"
    fill="#ffffff"
    opacity="0.92"
  />

  <path
    d="M24 20.5c4.8-2.8 10.9-4.1 18-3.3 6.2.7 11.6 2.8 15.8 5.8"
    fill="none"
    stroke="url(#blue)"
    stroke-linecap="round"
    stroke-width="4.5"
  />
  <path
    d="M24 29.8c5.2-1.8 11.1-2.3 17.6-1.4 5.6.8 10.8 2.6 15.4 5.2"
    fill="none"
    stroke="url(#blue)"
    stroke-linecap="round"
    stroke-width="4.5"
  />

  <circle cx="49.5" cy="18.2" r="2.6" fill="#d82c3a" />
</svg>
