<?xml version="1.0" encoding="UTF-8"?>
<svg id="Calque_2" data-name="Calque 2" xmlns="http://www.w3.org/2000/svg" viewBox="0 0 3800.6 2160">
  <defs>
    <style>
      .cls-1 {
        fill: #009dda;
      }

      .cls-2 {
        fill: #e53742;
      }
    </style>
  </defs>
  <g id="Calque_1-2" data-name="Calque 1">
    <g>
      <g>
        <g>
          <g>
            <path class="cls-2" d="M2042.89,1472.92l30.49-113.77c3.8-14.2,12.37-18.74,24.49-18.74h83.82l-3.85,14.38h-75.68c-7.75,0-9.75,2.27-11.53,8.9l-9.54,35.59h61.97l-3.85,14.38h-61.97l-15.88,59.25h-18.47Z"/>
            <path class="cls-2" d="M2189.69,1472.92c-31.38,0-32.71-19.49-24.6-49.79,9.89-36.92,26.16-51.67,61.71-51.67,28.01,0,45.54,8.7,37.43,38.99-3.1,11.56-8.49,17.61-20.42,17.61h-62.76c-4.36,16.28-5.59,31.99,15.66,31.99h51.45l-3.45,12.87h-55.02ZM2240.71,1415.19c3.98,0,5.54-2.84,6.15-5.11l.2-.76c5.07-18.94-5.82-24.99-23.51-24.99-21.64,0-32.91,7.95-39.05,30.85h56.21ZM2256.36,1344.95l-34.1,21.96-6.09-10.6,34.13-22.15,6.05,10.79Z"/>
            <path class="cls-2" d="M2314.24,1472.92c-34.75,0-38.88-17.98-30.26-50.16,8.37-31.24,22.39-50.17,57.14-50.17h31.58l8.62-32.18h16.69l-31.3,116.8c-2.64,9.85-8.19,15.71-20.31,15.71h-32.18ZM2340.8,1385.66c-25.23,0-33,13.43-39.35,37.1-6.59,24.6-5.81,37.29,19.41,37.29h21.44c5.56,0,7.51-2.08,8.88-7.19l18.01-67.2h-28.4Z"/>
            <path class="cls-2" d="M2426.85,1472.92c-31.38,0-32.71-19.49-24.6-49.79,9.89-36.92,26.16-51.67,61.71-51.67,28.01,0,45.54,8.7,37.43,38.99-3.1,11.56-8.5,17.61-20.42,17.61h-62.76c-4.36,16.28-5.59,31.99,15.66,31.99h51.45l-3.45,12.87h-55.02ZM2477.87,1415.19c3.98,0,5.54-2.84,6.15-5.11l.2-.76c5.07-18.94-5.82-24.99-23.51-24.99-21.64,0-32.91,7.95-39.05,30.85h56.21ZM2493.52,1344.95l-34.1,21.96-6.09-10.6,34.13-22.15,6.05,10.79Z"/>
            <path class="cls-2" d="M2528.27,1408.75c6.65-24.8,22.4-36.16,48.42-36.16h11.53l-3.45,12.87h-8.55c-18.27,0-27.41,8.9-32.33,27.27l-16.13,60.19h-16.69l17.19-64.17Z"/>
            <path class="cls-2" d="M2664.1,1372.59c18.67,0,24.47,10.99,20.06,27.45l-15.47,57.74c-2.74,10.22-8.24,15.14-20.55,15.14h-46.87c-19.27,0-24.78-9.85-19.2-30.67,5.33-19.88,16.31-30.48,35.58-30.48h46.67l3.2-11.93c2.28-8.51-.51-14.38-11.03-14.38h-51.25l3.45-12.87h55.41ZM2617.37,1424.65c-10.32,0-14.94,6.82-17.83,17.61-2.89,10.79-1.98,17.79,8.34,17.79h37.94c3.78,0,6.12-2.08,6.93-5.11l8.12-30.29h-43.5Z"/>
            <path class="cls-2" d="M2734.36,1472.92c-26.22,0-30.38-11.93-24.95-32.18l14.81-55.28h-15.49l3.45-12.87h15.49l8.62-32.18h16.69l-8.62,32.18h29.39l-3.45,12.87h-29.39l-14.56,54.34c-4.16,15.51.93,20.25,17.01,20.25h6.95l-3.45,12.87h-12.51Z"/>
            <path class="cls-2" d="M2798.36,1357.82l4.66-17.41h17.09l-4.66,17.41h-17.09ZM2794.6,1372.59h16.69l-26.88,100.33h-16.69l26.88-100.33Z"/>
            <path class="cls-2" d="M2932.63,1422.38c-10.19,38.04-30.13,51.68-67.88,51.68s-50.36-13.64-40.17-51.68c10.14-37.86,29.92-50.91,67.66-50.91s50.53,13.06,40.39,50.91ZM2868.19,1461.19c26.82,0,39.35-10.42,46.96-38.81,7.61-28.4.45-38.04-26.36-38.04s-39.13,9.65-46.74,38.04c-7.61,28.4-.66,38.81,26.14,38.81Z"/>
            <path class="cls-2" d="M2967.98,1389.06c2.79-10.4,8.99-16.47,20.51-16.47h37.74c22.84,0,33.01,9.46,26.82,32.56l-18.16,67.77h-16.68l17.4-64.93c3.65-13.63.88-22.53-15.02-22.53h-28.79c-3.98,0-6.51,1.33-7.88,6.44l-21.71,81.02h-16.69l22.47-83.86Z"/>
          </g>
          <g>
            <path class="cls-2" d="M2011.35,1656.6c-10.12,0-16.66-3.78-13.42-15.9l31.25-116.61h18.47l-29.52,110.18c-1.57,5.87-.14,7.95,6.61,7.95h77.07l-3.85,14.38h-86.61Z"/>
            <path class="cls-2" d="M2212.81,1640.13c-2.84,10.6-8.98,16.47-20.5,16.47h-38.93c-22.85,0-33.03-9.46-26.84-32.56l18.16-67.77h16.69l-17.4,64.93c-3.65,13.63-.88,22.53,15.02,22.53h29.99c3.97,0,6.51-1.33,7.88-6.44l21.71-81.02h16.68l-22.47,83.86Z"/>
            <path class="cls-2" d="M2304.74,1656.6l-18.54-40.51-40.06,40.51h-19.86l53.52-51.49-24.45-48.84h19.27l17.42,38.06,38-38.06h19.27l-50.43,48.84,25.73,51.49h-19.86Z"/>
            <path class="cls-2" d="M2377.04,1656.6c-31.38,0-32.71-19.49-24.6-49.79,9.89-36.92,26.16-51.67,61.71-51.67,28.01,0,45.54,8.7,37.43,38.99-3.1,11.56-8.49,17.61-20.42,17.61h-62.76c-4.36,16.28-5.59,31.99,15.66,31.99h51.45l-3.45,12.87h-55.02ZM2428.06,1598.86c3.98,0,5.54-2.84,6.15-5.11l.2-.76c5.07-18.94-5.82-24.99-23.51-24.99-21.64,0-32.91,7.95-39.05,30.85h56.21Z"/>
            <path class="cls-2" d="M2483.73,1572.74c2.79-10.4,8.99-16.47,20.51-16.47h94.15c22.84,0,33.01,9.47,26.82,32.56l-18.16,67.77h-16.68l17.4-64.93c3.65-13.63.88-22.53-15.02-22.53h-26.8l-23.43,87.46h-16.69l23.43-87.46h-41.71c-3.98,0-6.51,1.33-7.88,6.44l-21.71,81.02h-16.69l22.47-83.86Z"/>
            <path class="cls-2" d="M2656.34,1656.6c-12.31,0-18.5-3.6-15.1-16.28l31.14-116.23h16.69l-8.62,32.18h32.18c33.76,0,38.18,18.36,29.81,49.6-8.37,31.24-22.93,50.73-56.69,50.73h-29.41ZM2658.84,1636.91c-1.17,4.35-.63,6.82,4.93,6.82h22.44c25.23,0,32.92-16.1,38.75-37.86,5.83-21.78,6.46-36.73-18.77-36.73h-29.19l-18.16,67.77Z"/>
            <path class="cls-2" d="M2873.49,1606.06c-10.19,38.04-30.13,51.68-67.88,51.68s-50.36-13.64-40.17-51.68c10.14-37.86,29.92-50.91,67.66-50.91s50.53,13.06,40.39,50.91ZM2809.05,1644.87c26.82,0,39.35-10.42,46.96-38.81,7.61-28.4.45-38.04-26.36-38.04s-39.13,9.65-46.74,38.04c-7.61,28.4-.66,38.81,26.14,38.81Z"/>
            <path class="cls-2" d="M2981.34,1640.13c-2.84,10.6-8.98,16.47-20.5,16.47h-38.93c-22.85,0-33.03-9.46-26.84-32.56l18.16-67.77h16.69l-17.4,64.93c-3.65,13.63-.88,22.53,15.01,22.53h30c3.97,0,6.51-1.33,7.88-6.44l21.71-81.02h16.68l-22.47,83.86Z"/>
            <path class="cls-2" d="M3023.92,1592.43c6.65-24.8,22.4-36.16,48.42-36.16h11.53l-3.45,12.87h-8.55c-18.27,0-27.41,8.9-32.33,27.27l-16.13,60.19h-16.69l17.19-64.17Z"/>
            <path class="cls-2" d="M3113.2,1656.6c-34.75,0-38.88-17.98-30.26-50.16,8.37-31.24,22.39-50.17,57.14-50.17h24.43c16.49,0,26.01,2.27,21.95,17.42l-19.63,73.25c-7.41,27.64-21.84,42.22-54.81,42.22h-43.9l3.45-12.87h43.9c14.11,0,26.55-5.68,31.89-19.69h-34.17ZM3169.18,1575.96c1.17-4.35-.36-6.82-5.72-6.82h-23.63c-25.23,0-33.06,13.63-39.4,37.3-6.59,24.6-5.81,37.29,19.41,37.29h31.18l18.16-67.77Z"/>
            <path class="cls-2" d="M3228.62,1656.6c-31.38,0-32.71-19.49-24.6-49.79,9.89-36.92,26.16-51.67,61.71-51.67,28.01,0,45.54,8.7,37.43,38.99-3.1,11.56-8.49,17.61-20.42,17.61h-62.76c-4.36,16.28-5.59,31.99,15.66,31.99h51.45l-3.45,12.87h-55.02ZM3279.64,1598.86c3.98,0,5.54-2.84,6.15-5.11l.2-.76c5.07-18.94-5.82-24.99-23.51-24.99-21.64,0-32.91,7.95-39.05,30.85h56.21Z"/>
            <path class="cls-2" d="M3431.07,1606.06c-10.19,38.04-30.13,51.68-67.88,51.68s-50.36-13.64-40.17-51.68c10.14-37.86,29.92-50.91,67.66-50.91s50.53,13.06,40.39,50.91ZM3366.64,1644.87c26.82,0,39.35-10.42,46.96-38.81,7.61-28.4.45-38.04-26.36-38.04s-39.13,9.65-46.74,38.04c-7.61,28.4-.66,38.81,26.14,38.81Z"/>
            <path class="cls-2" d="M3474.78,1541.51l4.67-17.42h17.09l-4.67,17.42h-17.09ZM3471.03,1556.27h16.69l-26.88,100.33h-16.69l26.88-100.33Z"/>
            <path class="cls-2" d="M3491.89,1643.73h59.78c8.74,0,13.88-4.35,16.11-12.69,2.84-10.6-6.18-12.49-21.46-16.28l-18.04-4.54c-18.79-4.74-25.76-12.12-21.25-28.97,4.51-16.84,16.62-24.99,35.11-24.99h57.01l-3.45,12.87h-55.23c-9.73,0-14.37,3.22-16.75,12.12-2.99,11.17,4.44,13.83,15.2,16.67l19.49,5.11c19.89,5.11,32.04,8.7,26.81,28.2-4.16,15.53-12.76,25.37-32.82,25.37h-63.96l3.45-12.87Z"/>
            <path class="cls-2" d="M3638.81,1656.6c-31.38,0-32.71-19.49-24.6-49.79,9.89-36.92,26.16-51.67,61.71-51.67,28.01,0,45.54,8.7,37.43,38.99-3.1,11.56-8.49,17.61-20.42,17.61h-62.76c-4.36,16.28-5.59,31.99,15.66,31.99h51.45l-3.45,12.87h-55.02ZM3689.83,1598.86c3.98,0,5.54-2.84,6.15-5.11l.2-.76c5.07-18.94-5.82-24.99-23.51-24.99-21.64,0-32.91,7.95-39.05,30.85h56.21Z"/>
          </g>
          <g>
            <path class="cls-2" d="M1988.15,1840.28c-34.75,0-38.88-17.98-30.26-50.16,8.37-31.24,22.39-50.17,57.14-50.17h31.58l8.62-32.18h16.68l-31.3,116.8c-2.64,9.85-8.18,15.71-20.29,15.71h-32.18ZM2014.71,1753.02c-25.23,0-33,13.43-39.35,37.1-6.59,24.6-5.81,37.29,19.41,37.29h21.44c5.56,0,7.51-2.08,8.88-7.19l18.01-67.2h-28.4Z"/>
            <path class="cls-2" d="M2086.66,1738.06l31.92-33.89,11.67,8.33-32.57,33.31-11.02-7.75Z"/>
            <path class="cls-2" d="M2195.75,1720.82c6.65-9.28,12.45-14.57,22.97-14.57s13.83,5.49,15.36,14.57l20.63,119.45h-19.47l-6.06-35.96h-73.69l-25.13,35.96h-19.47l84.85-119.45ZM2164.92,1789.92h62.57l-9.94-60.76c-.48-2.65-.85-6.44-3.24-6.44s-4.58,3.78-6.49,6.44l-42.9,60.76Z"/>
            <path class="cls-2" d="M2308.55,1840.28c-26.22,0-30.38-11.93-24.95-32.18l14.81-55.28h-15.49l3.45-12.87h15.49l8.62-32.18h16.69l-8.62,32.18h29.39l-3.45,12.87h-29.39l-14.56,54.34c-4.16,15.51.93,20.25,17.01,20.25h6.95l-3.45,12.87h-12.51Z"/>
            <path class="cls-2" d="M2377.23,1707.77h16.69l-8.62,32.18h36.15c23.23,0,34.01,9.46,27.41,34.08l-17.75,66.25h-16.68l17.19-64.17c4.06-15.14.08-23.29-15.81-23.29h-33.96l-23.43,87.46h-16.69l35.51-132.51Z"/>
            <path class="cls-2" d="M2496.42,1707.77h16.69l-35.51,132.51h-16.69l35.51-132.51Z"/>
            <path class="cls-2" d="M2541.96,1840.28c-31.38,0-32.71-19.49-24.6-49.79,9.89-36.92,26.16-51.67,61.71-51.67,28.01,0,45.54,8.7,37.43,38.99-3.1,11.56-8.5,17.61-20.42,17.61h-62.76c-4.36,16.28-5.59,31.99,15.66,31.99h51.45l-3.45,12.87h-55.02ZM2592.98,1782.54c3.98,0,5.54-2.84,6.15-5.11l.2-.76c5.07-18.94-5.82-24.99-23.51-24.99-21.64,0-32.91,7.95-39.05,30.85h56.21ZM2608.63,1712.3l-34.1,21.96-6.09-10.6,34.13-22.15,6.05,10.79Z"/>
            <path class="cls-2" d="M2666.1,1840.28c-26.22,0-30.38-11.93-24.95-32.18l14.81-55.28h-15.49l3.45-12.87h15.49l8.62-32.18h16.69l-8.62,32.18h29.39l-3.45,12.87h-29.39l-14.56,54.34c-4.16,15.51.93,20.25,17.01,20.25h6.95l-3.45,12.87h-12.51Z"/>
            <path class="cls-2" d="M2730.11,1725.18l4.66-17.41h17.09l-4.66,17.41h-17.09ZM2726.35,1739.94h16.69l-26.88,100.33h-16.69l26.88-100.33Z"/>
            <path class="cls-2" d="M2747.23,1827.4h59.78c8.74,0,13.88-4.35,16.11-12.69,2.84-10.6-6.18-12.49-21.46-16.28l-18.04-4.54c-18.79-4.74-25.76-12.12-21.25-28.97,4.51-16.84,16.62-24.99,35.11-24.99h57.01l-3.45,12.87h-55.23c-9.73,0-14.37,3.22-16.75,12.12-2.99,11.17,4.44,13.83,15.2,16.67l19.49,5.11c19.89,5.11,32.04,8.7,26.81,28.2-4.16,15.53-12.76,25.37-32.82,25.37h-63.96l3.45-12.87Z"/>
            <path class="cls-2" d="M2882.05,1756.41c2.79-10.4,8.99-16.47,20.51-16.47h94.15c22.84,0,33.01,9.46,26.82,32.56l-18.16,67.77h-16.68l17.4-64.93c3.65-13.63.88-22.53-15.02-22.53h-26.8l-23.43,87.46h-16.69l23.43-87.46h-41.71c-3.98,0-6.51,1.33-7.88,6.44l-21.71,81.02h-16.69l22.47-83.86Z"/>
            <path class="cls-2" d="M3069.74,1840.28c-31.38,0-32.71-19.49-24.6-49.79,9.89-36.92,26.16-51.67,61.71-51.67,28.01,0,45.54,8.7,37.43,38.99-3.1,11.56-8.5,17.61-20.42,17.61h-62.76c-4.36,16.28-5.59,31.99,15.66,31.99h51.45l-3.45,12.87h-55.02ZM3120.76,1782.54c3.98,0,5.54-2.84,6.15-5.11l.2-.76c5.07-18.94-5.82-24.99-23.51-24.99-21.64,0-32.91,7.95-39.05,30.85h56.21Z"/>
          </g>
        </g>
        <g>
          <path class="cls-1" d="M3441.03,689.11c35.33-50,69.56-74.54,151.56-74.54,60.08,0,100.53,12.73,110.66,74.54l97.34,569.09h-180.22l-21.1-145.45h-281.3l-99.05,145.45h-179.27l401.36-569.09ZM3393.06,989.11h197.39l-30.79-201.82c-1.13-10-1.32-20-7.99-20s-13.17,10-19.66,20l-138.94,201.82Z"/>
          <path class="cls-2" d="M3063.91,1130.93h-154.15c-33.38,0-41.89-10.91-33.37-42.73l124.96-466.36h-171.64l-144.45,539.09c-18.27,68.18,13.03,97.27,75.01,97.27h213.87l89.76-127.27Z"/>
          <path class="cls-1" d="M2397.02,791.84c8.53-31.82,22.89-42.73,56.27-42.73h286.9l34.1-127.27h-402.27c-61.98,0-109.12,30-127.39,98.18l-144.2,538.18h171.64l68.2-254.54h215.5l34.1-127.27h-215.5l22.65-84.54Z"/>
        </g>
      </g>
      <g>
        <g id="Bleu">
          <path class="cls-1" d="M1533.14,1681.44c-136.99,176.89-304.65,338.24-499.85,478.56,251.89-401.95,300.61-911.78-22.85-1284.38,24.82-1.51,59.11-7.77,92.15-27.74,129.98,129.48,238.88,278.83,314.99,446.28,56.74,123.47,94.68,253.96,115.56,387.27Z"/>
          <path class="cls-1" d="M1800.87,1230.76c-49.03,113.13-108.9,222.69-179.06,327.55-89.08-288.41-265.61-541.26-492.39-730.31,25.78-23.15,44.74-53.67,54.37-86.35,197.02,87.66,378.14,213,522.85,373.25,33.59,37.02,65.01,75.71,94.22,115.86Z"/>
          <path class="cls-1" d="M1916.83,872.29c-19.12,87.41-44.39,173.51-75.56,257.79-180.42-192.63-404.52-329.42-651.62-414.91,4.14-27.44,2.47-56.09-5.45-83.83,80.15,8.07,159.84,20.78,238.27,38.38,174.57,39.54,343.29,106.78,494.35,202.56Z"/>
          <path class="cls-1" d="M1957.79,570.42c-3.98,73.84-12.31,147.03-24.82,219.41-150.16-74.9-311.11-124.43-477.66-150.81,11.35-26.98,27.44-74.8,22.65-120.95,161.25.05,322.2,17.71,479.83,52.36Z"/>
          <path class="cls-1" d="M1944.52,499.55c-156.81-20.78-315.85-24.61-473.42-12.61-10.14-30.77-39.44-64.96-90.84-74.3l37.78-108.8.61.15c187.18,40.4,364.02,106.12,525.88,195.55Z"/>
        </g>
        <g id="Rouge">
          <g>
            <path class="cls-2" d="M698.73,623.53l52.81-38.54c-48.02-133.32,212.08,15.53,200.14,7.42-98.66-11.75-248.87,29.96-252.95,31.12Z"/>
            <path class="cls-2" d="M1248.57,195.65L1114.5,0l-134.47,142.34L845.61,0l-134.12,195.65L500.25,29.91l91.65,263.85c-16.9,3.23-33.74,6.61-50.49,10.24C348.33,345.66,166.15,414.41,0,508.27c13.42,627.92,338.75,1216.59,897.11,1629.94,188.29-233.18,295.72-534.7,261.17-820.49-169.12-82.92-341.27,129.68-197.92,273.73-35.46,22.8-115.45,1.46-126.6-24.16,0,0-5.95,50.14,71.27,81.71,0,0-153.74,43.08-239.13-66.13,0,0-2.22,31.22,26.03,65.37,0,0-108.44-18.97-139.41-147.03,277.97,87.97,374.31-423.33,118.08-609,0,0,34.9-75.36-26.73-155.2,18.16,43.33,4.24,100.22-45.4,116.61-83.78-53.01-191.26-91.45-301.88-80.7-6.96,7.41-12.26,31.83-9.48,40.3-75.4-51.8-42.87-154.34-9.13-164.58,6.76,6.15,16.09,14.98,24.86,20.63-8.78,27.79,16.75,63.15,21.19,68.09-1.01-6.46-5.6-35.61,7.82-63.75,30.97,2.82,105.87-26.03,125.9-57.6-2.77-.05-161.76,14.02-162.82-25.42,157.67-74.55,378.29-76.26,378.29-76.26-4.59-35.71,8.78-61.49,31.57-80.05-10.94-31.47-73.64-212-79.74-229.6,3.58,2.77,91.25,71.57,91.35,71.67.66-.66,26.53-26.58,31.73-31.78.86,5.95,6.51,46.3,7.41,52.66-33.29,24.92-8.93,82.77,32.79,75.36,42.22-4.44,49.53-66.68,10.74-81.46-.86-6.3-6.56-46.56-7.51-53.26l38.84,17.9-35.61-77.47,57.85-82.77,78.18,82.77-17.55,80.15c6.56-3.38,37.63-19.42,44.79-23.15v44.24c-36.42,20.13-20.48,80.75,21.99,79.24,42.47,1.51,58.41-59.16,21.99-79.24v-44.24c7.36,3.83,38.08,19.67,44.79,23.15l-17.55-80.15,78.18-82.77,57.85,82.77-35.61,77.47,38.84-17.9c-.96,6.71-6.66,47.01-7.51,53.26-38.79,14.78-31.48,77.07,10.74,81.46,41.71,7.41,66.08-50.44,32.79-75.36.91-6.41,6.56-46.71,7.42-52.66,5.34,5.35,31.07,31.12,31.73,31.78.05-.05,88.27-69.3,91.34-71.67-6.15,17.81-65.47,188.64-75.81,218.4,22.35-6.91,45.4-11.85,68.75-13.42L1459.81,29.91l-211.24,165.74ZM765.66,1234.19c-41.46,317.87-269.39,248.41-281.09,72.68,115.76,204.78,266.37-38.99,281.09-72.68ZM336.63,823.21c198.12,5.95,305.21,122.57,305.21,122.57-131.59-59.11-201.55-46.3-201.55-46.3-37.58,37.98-17,140.22-16.49,142.79-104.46-129.93-87.16-219.06-87.16-219.06Z"/>
            <path class="cls-2" d="M1136.27,541.07s142.24-103.03,240.9-77.42c98.66,25.61,24.39,171.52,24.39,171.52,0,0-30.43-60.48-110.9-75.3l58.01-37.13s-77.89-32.29-212.41,18.34Z"/>
          </g>
          <g>
            <path class="cls-2" d="M698.73,623.53l52.81-38.54c-48.02-133.32,212.08,15.53,200.14,7.42-98.66-11.75-248.87,29.96-252.95,31.12Z"/>
            <path class="cls-2" d="M1248.57,195.65L1114.5,0l-134.47,142.34L845.61,0l-134.12,195.65L500.25,29.91l91.65,263.85c-16.9,3.23-33.74,6.61-50.49,10.24C348.33,345.66,166.15,414.41,0,508.27c13.42,627.92,338.75,1216.59,897.11,1629.94,188.29-233.18,295.72-534.7,261.17-820.49-169.12-82.92-341.27,129.68-197.92,273.73-35.46,22.8-115.45,1.46-126.6-24.16,0,0-5.95,50.14,71.27,81.71,0,0-153.74,43.08-239.13-66.13,0,0-2.22,31.22,26.03,65.37,0,0-108.44-18.97-139.41-147.03,277.97,87.97,374.31-423.33,118.08-609,0,0,34.9-75.36-26.73-155.2,18.16,43.33,4.24,100.22-45.4,116.61-83.78-53.01-191.26-91.45-301.88-80.7-6.96,7.41-12.26,31.83-9.48,40.3-75.4-51.8-42.87-154.34-9.13-164.58,6.76,6.15,16.09,14.98,24.86,20.63-8.78,27.79,16.75,63.15,21.19,68.09-1.01-6.46-5.6-35.61,7.82-63.75,30.97,2.82,105.87-26.03,125.9-57.6-2.77-.05-161.76,14.02-162.82-25.42,157.67-74.55,378.29-76.26,378.29-76.26-4.59-35.71,8.78-61.49,31.57-80.05-10.94-31.47-73.64-212-79.74-229.6,3.58,2.77,91.25,71.57,91.35,71.67.66-.66,26.53-26.58,31.73-31.78.86,5.95,6.51,46.3,7.41,52.66-33.29,24.92-8.93,82.77,32.79,75.36,42.22-4.44,49.53-66.68,10.74-81.46-.86-6.3-6.56-46.56-7.51-53.26l38.84,17.9-35.61-77.47,57.85-82.77,78.18,82.77-17.55,80.15c6.56-3.38,37.63-19.42,44.79-23.15v44.24c-36.42,20.13-20.48,80.75,21.99,79.24,42.47,1.51,58.41-59.16,21.99-79.24v-44.24c7.36,3.83,38.08,19.67,44.79,23.15l-17.55-80.15,78.18-82.77,57.85,82.77-35.61,77.47,38.84-17.9c-.96,6.71-6.66,47.01-7.51,53.26-38.79,14.78-31.48,77.07,10.74,81.46,41.71,7.41,66.08-50.44,32.79-75.36.91-6.41,6.56-46.71,7.42-52.66,5.34,5.35,31.07,31.12,31.73,31.78.05-.05,88.27-69.3,91.34-71.67-6.15,17.81-65.47,188.64-75.81,218.4,22.35-6.91,45.4-11.85,68.75-13.42L1459.81,29.91l-211.24,165.74ZM765.66,1234.19c-41.46,317.87-269.39,248.41-281.09,72.68,115.76,204.78,266.37-38.99,281.09-72.68ZM336.63,823.21c198.12,5.95,305.21,122.57,305.21,122.57-131.59-59.11-201.55-46.3-201.55-46.3-37.58,37.98-17,140.22-16.49,142.79-104.46-129.93-87.16-219.06-87.16-219.06Z"/>
            <path class="cls-2" d="M1136.27,541.07s142.24-103.03,240.9-77.42c98.66,25.61,24.39,171.52,24.39,171.52,0,0-30.43-60.48-110.9-75.3l58.01-37.13s-77.89-32.29-212.41,18.34Z"/>
          </g>
        </g>
      </g>
    </g>
  </g>
</svg>